<?xml version="1.0" encoding="UTF-8" standalone="no"?>
<svg
   version="1.0"
   width="432.04938pt"
   height="66.921989pt"
   viewBox="0 0 432.04938 66.921989"
   preserveAspectRatio="xMidYMid meet"
   id="svg150"
   sodipodi:docname="logo.svg"
   inkscape:version="1.1.2 (0a00cf5339, 2022-02-04)"
   xmlns:inkscape="http://www.inkscape.org/namespaces/inkscape"
   xmlns:sodipodi="http://sodipodi.sourceforge.net/DTD/sodipodi-0.dtd"
   xmlns="http://www.w3.org/2000/svg"
   xmlns:svg="http://www.w3.org/2000/svg">
  <defs
     id="defs154" />
  <sodipodi:namedview
     id="namedview152"
     pagecolor="#ffffff"
     bordercolor="#666666"
     borderopacity="1.0"
     inkscape:pageshadow="2"
     inkscape:pageopacity="0.0"
     inkscape:pagecheckerboard="0"
     inkscape:document-units="pt"
     showgrid="false"
     inkscape:zoom="0.5787227"
     inkscape:cx="-160.69872"
     inkscape:cy="-159.83475"
     inkscape:window-width="2514"
     inkscape:window-height="1376"
     inkscape:window-x="2560"
     inkscape:window-y="27"
     inkscape:window-maximized="1"
     inkscape:current-layer="svg150"
     inkscape:lockguides="false"
     width="245.21124pt"
     fit-margin-top="0"
     fit-margin-left="0"
     fit-margin-right="0"
     fit-margin-bottom="0" />
  <path
     d="m 70.115779,2.7 c -1,4.8 -1.2,5 -4.3,5.6 -1.8,0.4 -3.1,1.3 -3.1,2.2 0,1.4 0.5,1.7 3.9,1.9 1.2,0.1 1.4,1.5 1,7.1 -1.2,20.2 1,40.2 5.1,45.5 2.8,3.7 3.3,2 1.5,-4.6 -1.9,-6.8 -3.1,-31.8 -2.1,-41.6 l 0.7,-6.6 5,-0.6 c 7.4,-1 6.4,-4.6 -1.3,-4.6 -2.5,0 -2.9,-0.3 -2.5,-1.9 0.5,-2 -0.9,-5.1 -2.3,-5.1 -0.5,0 -1.2,1.2 -1.6,2.7 z"
     id="path24"
     style="fill:#006ca7;stroke:none;stroke-width:0.1" />
  <path
     d="m 32.11578,8.1 c -1.4,2.9 -4.8,11.1 -7.6,18.3 -6,15.8 -7.2,18 -10,20 -2,1.4 -2.4,1.4 -3.9,0 -1.7999995,-1.6 -3.3999995,-9.3 -4.3999995,-21.9 -0.9,-10.3 -2.4,-17.2 -4.1,-18.6 C -0.18421954,4 -0.48421954,5.3 0.61578046,13.7 1.2157805,18 2.1157805,25.7 2.7157805,30.8 c 1.2,10.8 3.2,16.4 6.8,19.2 3.5999995,2.9 6.6999995,2.5 9.6999995,-1.3 2.7,-3.3 3.8,-5.6 13,-27.7 7.1,-16.9 7.4,-18 4.6,-18 -1.5,0 -2.8,1.4 -4.7,5.1 z"
     id="path26"
     style="fill:#006ca7;stroke:none;stroke-width:0.1" />
  <path
     d="m 35.71578,22.5 c 0,0.8 0.7,1.5 1.5,1.5 0.8,0 1.5,-0.7 1.5,-1.5 0,-0.8 -0.7,-1.5 -1.5,-1.5 -0.8,0 -1.5,0.7 -1.5,1.5 z"
     id="path28"
     style="fill:#006ca7;stroke:none;stroke-width:0.1" />
  <path
     d="m 57.715779,22.4 c 0,1 0.9,1.6 2.1,1.6 2.4,0 2.1,-2.3 -0.4,-2.8 -1,-0.2 -1.7,0.3 -1.7,1.2 z"
     id="path30"
     style="fill:#006ca7;stroke:none;stroke-width:0.1" />
  <path
     d="m 43.21578,26.4 c -2,3 -1.2,5 3.1,7.7 2.6,1.6 3.2,2.4 2.5,3.7 -1.6,2.9 -5.4,5.8 -10.3,7.8 -5.3,2.1 -5.9,3.1 -2.6,4.3 5.1,1.9 17.8,-6.5 17.8,-11.8 0,-2.4 -3.7,-7.1 -5.7,-7.1 -2.2,0 -1,-2.5 1.5,-2.8 2.5,-0.4 2.8,-1.2 1,-3 -2,-2 -5.6,-1.4 -7.3,1.2 z"
     id="path32"
     style="fill:#006ca7;stroke:none;stroke-width:0.1" />
  <path
     d="m 80.515779,26.9 c -3.2,3.7 -5.5,11.7 -4.1,14 1.8,2.9 5.1,2.5 8.9,-1.3 2,-2 3.8,-3.6 4.1,-3.6 0.3,0 1.3,1 2.3,2.2 l 1.8,2.2 6.900001,-5.7 c 3.9,-3.1 7.4,-5.7 7.9,-5.7 0.5,0 1.7,0.9 2.7,2 2.6,3.1 7.3,2.1 8.9,-1.8 0.1,-0.5 7.4,-1.2 16,-1.5 l 15.6,-0.6 4.5,4 c 4.8,4.2 7.2,4.8 10.3,2.4 2.3,-1.8 1.4,-1.9 -2.1,-0.3 -2.4,1.1 -2.9,0.8 -7.4,-3.6 l -4.8,-4.7 -15.5,-0.6 c -16.4,-0.6 -20.8,-0.2 -20.8,2.2 0,1.9 -0.3,1.9 -4.2,-0.5 -1.8,-1.1 -3.6,-2 -3.9,-2 -1,0 -4.2,3.2 -8.200001,8.3 -2.1,2.6 -4.3,4.5 -4.7,4.2 -0.5,-0.3 -1.2,-2.2 -1.6,-4.3 -0.7,-4.1 -4.7,-8.1 -8.1,-8.2 -1.1,0 -3.2,1.3 -4.5,2.9 z m 4.5,5.5 c -1,1.4 -2.1,2.6 -2.5,2.6 -1.5,0 -0.8,-2.7 1.4,-5 2.7,-2.9 3.6,-1 1.1,2.4 z"
     id="path34"
     style="fill:#006ca7;stroke:none;stroke-width:0.1" />
  <path
     d="m 35.41578,30.6 c -1.2,1.2 -0.8,10.9 0.5,12.2 2.3,2.3 2.9,1.1 2.6,-5.5 -0.3,-6.1 -1.4,-8.4 -3.1,-6.7 z"
     id="path36"
     style="fill:#006ca7;stroke:none;stroke-width:0.1" />
  <path
     d="m 57.11578,33.4 c -0.7,4.1 1.199999,10.6 3.199999,10.6 1,0 1.4,-1.4 1.4,-5.1 0,-8.2 -3.3,-12.1 -4.599999,-5.5 z"
     id="path38"
     style="fill:#006ca7;stroke:none;stroke-width:0.1" />
  <path
     d="m 203.21168,13.667925 c -13,2.6 -19.5,13.3 -14.9,24.3 4.9,12 28,14.6 37.5,4.3 l 2.4,-2.6 h -2.4 c -1.4,0 -3.5,0.9 -4.7,2 -3,2.9 -6.6,4 -12.3,4 -6.3,0 -10.8,-1.9 -14.2,-5.9 -4.8,-5.8 -3.3,-16.2 3.1,-20.6 6.1,-4.3 17.2,-3.9 22.9,0.9 1.9,1.5 3.4,2.1 4.7,1.6 3.2,-1.1 -4.4,-6.5 -11.1,-7.9 -3.1,-0.6 -5.9,-1.1 -6.2,-1 -0.3,0.1 -2.5,0.5 -4.8,0.9 z"
     id="path40"
     style="fill:#006ca7;stroke:none;stroke-width:0.1" />
  <path
     d="m 318.91168,15.167925 c 0,1.2 1.5,1.5 7.5,1.5 h 7.5 v 16 16 h 2.5 2.5 v -16 -16 h 7.5 c 6,0 7.5,-0.3 7.5,-1.5 0,-1.3 -2.6,-1.5 -17.5,-1.5 -14.9,0 -17.5,0.2 -17.5,1.5 z"
     id="path42"
     style="fill:#006ca7;stroke:none;stroke-width:0.1" />
  <path
     d="m 239.61168,24.467925 c -1,1 -1.7,2.4 -1.7,3 0,1.9 2.8,1.4 4,-0.8 1.4,-2.6 5.6,-2.6 7,-0.1 1.8,3.5 1.1,4.8 -3.5,6.5 -4.4,1.7 -9.5,6.6 -9.5,9 0,0.8 0.9,2.5 2.1,4 2.2,2.8 6.4,3.5 9.9,1.6 1.3,-0.7 2.1,-0.7 2.5,0 0.3,0.5 1.3,1 2.2,1 1.4,0 1.5,-1.5 1.1,-11.7 -0.5,-9.7 -0.9,-11.9 -2.4,-13 -2.7,-2 -9.8,-1.7 -11.7,0.5 z m 10.3,15.2 c 0,5.3 -1.9,7.5 -6.2,6.8 -4.9,-0.7 -4.9,-7.6 0,-10.2 5.1,-2.8 6.2,-2.2 6.2,3.4 z"
     id="path44"
     style="fill:#006ca7;stroke:none;stroke-width:0.1" />
  <path
     d="m 257.91168,41.267925 c 0,17.1 0.1,18.5 1.8,18.2 1.3,-0.2 1.8,-1.7 2.2,-6.8 0.3,-3.8 0.8,-6 1.3,-5.3 0.5,0.7 2.3,1.3 4.1,1.3 2.7,0 3.6,-0.6 5.4,-3.9 2.7,-4.8 2.9,-13.1 0.4,-18.1 -1.3,-2.8 -2.4,-3.6 -5,-3.8 -1.8,-0.2 -4,0.2 -4.8,0.9 -1,0.8 -1.4,0.8 -1.4,0 0,-0.6 -0.9,-1.1 -2,-1.1 -1.9,0 -2,0.7 -2,18.6 z m 10.6,-15.8 c 0.6,0.4 1.7,2.4 2.4,4.6 3.3,10.1 -3.7,22.4 -7.6,13.1 -3.7,-9 -0.1,-21.3 5.2,-17.7 z"
     id="path46"
     style="fill:#006ca7;stroke:none;stroke-width:0.1" />
  <path
     d="m 284.31168,23.867925 c -6.9,3.3 -7,18.4 -0.2,23.2 4,2.9 11.1,1.5 13.6,-2.5 1.7,-2.7 -1.1,-2.6 -3.8,0.1 -4.3,4.3 -11,1 -11,-5.5 v -3.5 h 8 8 v -2.8 c 0,-2.8 -2.1,-6.7 -4.8,-9 -1.9,-1.4 -6.8,-1.5 -9.8,0 z m 8.2,1.6 c 1.5,1 3.4,4.7 3.4,6.6 0,1.3 -1.3,1.6 -6.9,1.6 h -7 l 0.9,-3.1 c 0.5,-1.7 1.4,-3.7 2.1,-4.5 1.2,-1.5 5.7,-1.9 7.5,-0.6 z"
     id="path48"
     style="fill:#006ca7;stroke:none;stroke-width:0.1" />
  <path
     d="m 359.31168,24.767925 c -1.6,1.7 -1.9,3.7 -1.9,10.9 0,10.5 1.5,13 7.5,13 6.7,0 9.8,-5.5 8.8,-16 -0.7,-7.4 -2.9,-10 -8.2,-10 -3.1,0 -4.8,0.6 -6.2,2.1 z m 9.6,1.8 c 0.5,1.1 1,5.2 1,9.1 0,8.4 -1.1,11 -4.6,11 -1.9,0 -2.8,-0.8 -4.1,-3.7 -1.7,-4.3 -1.3,-14.4 0.7,-16.8 1.8,-2.1 5.7,-1.8 7,0.4 z"
     id="path50"
     style="fill:#006ca7;stroke:none;stroke-width:0.1" />
  <path
     d="m 376.31168,24.467925 c 0.3,1 1.3,4.4 2.1,7.7 4,15.3 4.5,16.5 6.9,16.5 2.1,0 2.5,-0.9 4.5,-9.8 1.2,-5.3 2.5,-10.4 2.8,-11.2 0.3,-0.8 1.8,3.4 3.2,9.5 2.4,10.1 2.8,11 5.1,11.3 2.4,0.3 2.6,-0.2 5.3,-10.5 1.5,-5.9 3,-11.8 3.3,-13.1 0.5,-1.6 0.2,-2.2 -0.9,-2.2 -1.7,0 -2.2,1.5 -5.3,14.4 -1,4.2 -2.1,7.3 -2.5,6.9 -0.5,-0.5 -1.8,-5.4 -3,-11.1 -2,-9.3 -2.4,-10.2 -4.5,-10.2 -2.5,0 -3.1,1.3 -6,14.3 -1,4.2 -2.1,7.4 -2.5,7 -0.5,-0.5 -1.8,-5.4 -3,-11.1 -1.8,-8.7 -2.5,-10.2 -4.1,-10.2 -1.4,0 -1.8,0.5 -1.4,1.8 z"
     id="path52"
     style="fill:#006ca7;stroke:none;stroke-width:0.1" />
  <path
     d="m 413.91168,35.667925 c 0,12.3 0.1,13 2,13 1.9,0 2,-0.7 2,-10.1 0,-11.2 0.8,-12.9 5.9,-12.9 2.6,0 3.1,0.5 4,3.7 0.6,2.1 1.1,7.3 1.1,11.5 0,6.3 0.3,7.8 1.5,7.8 2.2,0 2.2,-20.6 -0.1,-23.8 -1.7,-2.5 -6.1,-2.9 -9.7,-1.1 -1.6,0.9 -2.2,0.9 -2.5,0 -0.2,-0.6 -1.2,-1.1 -2.3,-1.1 -1.8,0 -1.9,0.9 -1.9,13 z"
     id="path54"
     style="fill:#006ca7;stroke:none;stroke-width:0.1" />
</svg>
